<mxfile host="drawio-plugin" modified="2022-09-30T22:50:30.104Z" agent="5.0 (Macintosh; Intel Mac OS X 10_15_7) AppleWebKit/537.36 (KHTML, like Gecko) Chrome/98.0.4758.102 Safari/537.36" etag="8ojnyL-jResb7CX-xOrZ" version="15.5.4" type="embed"><diagram id="Yo6Zvny2ZRX3JAPKxXua" name="Page 2"><mxGraphModel dx="904" dy="813" grid="1" gridSize="10" guides="1" tooltips="1" connect="1" arrows="1" fold="1" page="1" pageScale="1" pageWidth="850" pageHeight="1100" math="0" shadow="0"><root><mxCell id="0"/><mxCell id="1" parent="0"/><mxCell id="8I9pphBKhg92I5GMk5e_-31" value="" style="graphMlID=e0;endArrow=none;strokeColor=#FF6392;strokeWidth=1.0;startArrow=diamond;startFill=0;endFill=1;exitX=1;exitY=0.25;exitDx=0;exitDy=0;fontColor=#5AA9E6;entryX=-0.008;entryY=-0.286;entryDx=0;entryDy=0;entryPerimeter=0;" parent="1" source="8I9pphBKhg92I5GMk5e_-50" target="8I9pphBKhg92I5GMk5e_-57" edge="1"><mxGeometry relative="1" as="geometry"/></mxCell><mxCell id="8I9pphBKhg92I5GMk5e_-32" value="" style="graphMlID=e1;endArrow=none;strokeColor=#FF6392;strokeWidth=1.0;startArrow=diamond;startFill=0;endFill=1;exitX=1;exitY=0.5;exitDx=0;exitDy=0;fontColor=#5AA9E6;entryX=0;entryY=0.5;entryDx=0;entryDy=0;" parent="1" source="8I9pphBKhg92I5GMk5e_-51" target="8I9pphBKhg92I5GMk5e_-61" edge="1"><mxGeometry relative="1" as="geometry"/></mxCell><mxCell id="8I9pphBKhg92I5GMk5e_-33" value="" style="graphMlID=e2;endArrow=none;strokeColor=#FF6392;strokeWidth=1.0;startArrow=diamond;startFill=0;endFill=1;fontColor=#5AA9E6;entryX=0;entryY=0.25;entryDx=0;entryDy=0;" parent="1" source="8I9pphBKhg92I5GMk5e_-60" target="8I9pphBKhg92I5GMk5e_-89" edge="1"><mxGeometry relative="1" as="geometry"><mxPoint x="648" y="240" as="sourcePoint"/></mxGeometry></mxCell><mxCell id="8I9pphBKhg92I5GMk5e_-34" value="" style="graphMlID=e3;endArrow=none;strokeColor=#FF6392;strokeWidth=1.0;startArrow=diamond;startFill=0;endFill=1;exitX=0.988;exitY=-0.077;exitDx=0;exitDy=0;exitPerimeter=0;fontColor=#5AA9E6;entryX=-0.023;entryY=0.105;entryDx=0;entryDy=0;entryPerimeter=0;" parent="1" source="8I9pphBKhg92I5GMk5e_-53" target="8I9pphBKhg92I5GMk5e_-64" edge="1"><mxGeometry relative="1" as="geometry"><mxPoint x="840" y="580" as="targetPoint"/></mxGeometry></mxCell><mxCell id="8I9pphBKhg92I5GMk5e_-35" value="" style="graphMlID=e4;endArrow=none;strokeColor=#FF6392;strokeWidth=1.0;startArrow=diamond;startFill=0;endFill=1;exitX=0.975;exitY=1;exitDx=0;exitDy=0;exitPerimeter=0;fontColor=#5AA9E6;entryX=0;entryY=0.5;entryDx=0;entryDy=0;" parent="1" source="8I9pphBKhg92I5GMk5e_-53" target="8I9pphBKhg92I5GMk5e_-71" edge="1"><mxGeometry relative="1" as="geometry"/></mxCell><mxCell id="8I9pphBKhg92I5GMk5e_-36" value="" style="graphMlID=e5;endArrow=none;strokeColor=#FF6392;strokeWidth=1.0;startArrow=diamond;startFill=0;endFill=1;fontColor=#5AA9E6;exitX=1.001;exitY=-0.077;exitDx=0;exitDy=0;exitPerimeter=0;" parent="1" source="8I9pphBKhg92I5GMk5e_-55" target="8I9pphBKhg92I5GMk5e_-82" edge="1"><mxGeometry relative="1" as="geometry"/></mxCell><mxCell id="8I9pphBKhg92I5GMk5e_-37" value="" style="graphMlID=e6;endArrow=none;strokeColor=#FF6392;strokeWidth=1.0;startArrow=diamond;startFill=0;endFill=1;fontColor=#5AA9E6;" parent="1" source="8I9pphBKhg92I5GMk5e_-64" target="8I9pphBKhg92I5GMk5e_-97" edge="1"><mxGeometry relative="1" as="geometry"/></mxCell><mxCell id="8I9pphBKhg92I5GMk5e_-38" value="" style="graphMlID=e7;endArrow=none;strokeColor=#FF6392;strokeWidth=1.0;startArrow=none;startFill=1;endFill=1;fontColor=#5AA9E6;entryX=0;entryY=0.25;entryDx=0;entryDy=0;exitX=1;exitY=0.5;exitDx=0;exitDy=0;" parent="1" source="8I9pphBKhg92I5GMk5e_-67" target="8I9pphBKhg92I5GMk5e_-72" edge="1"><mxGeometry relative="1" as="geometry"/></mxCell><mxCell id="8I9pphBKhg92I5GMk5e_-39" value="" style="graphMlID=e8;endArrow=none;strokeColor=#FF6392;strokeWidth=1.0;startArrow=diamond;startFill=0;endFill=1;fontColor=#5AA9E6;exitX=1;exitY=0.5;exitDx=0;exitDy=0;entryX=0;entryY=0.5;entryDx=0;entryDy=0;" parent="1" source="8I9pphBKhg92I5GMk5e_-57" target="8I9pphBKhg92I5GMk5e_-86" edge="1"><mxGeometry relative="1" as="geometry"><mxPoint x="710" y="80" as="sourcePoint"/></mxGeometry></mxCell><mxCell id="8I9pphBKhg92I5GMk5e_-40" value="" style="graphMlID=e9;endArrow=none;strokeColor=#FF6392;strokeWidth=1.0;startArrow=diamond;startFill=0;endFill=1;fontColor=#5AA9E6;exitX=1;exitY=0.5;exitDx=0;exitDy=0;entryX=-0.013;entryY=0.08;entryDx=0;entryDy=0;entryPerimeter=0;" parent="1" source="8I9pphBKhg92I5GMk5e_-86" target="8I9pphBKhg92I5GMk5e_-105" edge="1"><mxGeometry relative="1" as="geometry"/></mxCell><mxCell id="8I9pphBKhg92I5GMk5e_-41" value="" style="graphMlID=e10;endArrow=none;strokeColor=#FF6392;strokeWidth=1.0;startArrow=diamond;startFill=0;endFill=1;fontColor=#5AA9E6;exitX=0.998;exitY=0.132;exitDx=0;exitDy=0;exitPerimeter=0;entryX=0.008;entryY=0.345;entryDx=0;entryDy=0;entryPerimeter=0;" parent="1" source="8I9pphBKhg92I5GMk5e_-85" target="8I9pphBKhg92I5GMk5e_-101" edge="1"><mxGeometry relative="1" as="geometry"/></mxCell><mxCell id="8I9pphBKhg92I5GMk5e_-42" value="" style="graphMlID=e11;endArrow=none;strokeColor=#FF6392;strokeWidth=1.0;startArrow=diamond;startFill=0;endFill=1;fontColor=#5AA9E6;exitX=1;exitY=0.5;exitDx=0;exitDy=0;entryX=0.006;entryY=0.178;entryDx=0;entryDy=0;entryPerimeter=0;" parent="1" source="8I9pphBKhg92I5GMk5e_-97" target="8I9pphBKhg92I5GMk5e_-109" edge="1"><mxGeometry relative="1" as="geometry"/></mxCell><mxCell id="8I9pphBKhg92I5GMk5e_-43" value="" style="graphMlID=e12;endArrow=none;strokeColor=#FF6392;strokeWidth=1.0;startArrow=diamond;startFill=0;endFill=1;fontColor=#5AA9E6;exitX=0.999;exitY=0.387;exitDx=0;exitDy=0;exitPerimeter=0;entryX=-0.014;entryY=0.373;entryDx=0;entryDy=0;entryPerimeter=0;" parent="1" source="8I9pphBKhg92I5GMk5e_-109" target="8I9pphBKhg92I5GMk5e_-112" edge="1"><mxGeometry relative="1" as="geometry"/></mxCell><mxCell id="8I9pphBKhg92I5GMk5e_-44" value="" style="graphMlID=e13;endArrow=none;strokeColor=#FF6392;strokeWidth=1.0;startArrow=none;startFill=1;endFill=1;fontColor=#5AA9E6;entryX=0.528;entryY=0.978;entryDx=0;entryDy=0;entryPerimeter=0;exitX=0.57;exitY=-0.037;exitDx=0;exitDy=0;exitPerimeter=0;" parent="1" source="8I9pphBKhg92I5GMk5e_-60" target="8I9pphBKhg92I5GMk5e_-57" edge="1"><mxGeometry relative="1" as="geometry"/></mxCell><mxCell id="8I9pphBKhg92I5GMk5e_-45" value="" style="graphMlID=e14;endArrow=none;strokeColor=#FF6392;strokeWidth=1.0;startArrow=none;startFill=1;endFill=1;fontColor=#5AA9E6;exitX=0.5;exitY=0;exitDx=0;exitDy=0;" parent="1" source="8I9pphBKhg92I5GMk5e_-96" target="8I9pphBKhg92I5GMk5e_-88" edge="1"><mxGeometry relative="1" as="geometry"><mxPoint x="1177.6990312711996" y="279.6614280464578" as="targetPoint"/></mxGeometry></mxCell><mxCell id="8I9pphBKhg92I5GMk5e_-50" value="VirtualWorld" style="swimlane;fontStyle=1;align=center;verticalAlign=top;childLayout=stackLayout;horizontal=1;startSize=20;horizontalStack=0;resizeParent=1;resizeParentMax=0;resizeLast=0;collapsible=1;marginBottom=0;hachureGap=4;pointerEvents=0;fillColor=#FFE45E;strokeColor=#FF6392;fontColor=#5AA9E6;" parent="1" vertex="1"><mxGeometry x="20" y="150" width="300" height="610" as="geometry"/></mxCell><mxCell id="8I9pphBKhg92I5GMk5e_-51" value="+TIMER_ACTION_PERIOD: int         &lt;&lt;static&gt;&gt;&#10;+VIEW_WIDTH: int                          &lt;&lt;static&gt;&gt;&#10;+VIEW_HEIGHT: int                         &lt;&lt;static&gt;&gt;&#10;+TILE_WIDTH: int                           &lt;&lt;static&gt;&gt;&#10;+TILE_HEIGHT: int                          &lt;&lt;static&gt;&gt;&#10;+WORLD_WIDTH_SCALE: int           &lt;&lt;static&gt;&gt;&#10;+WORLD_HEIGHT_SCALE: int          &lt;&lt;static&gt;&gt;&#10;+VIEW_COLS: int                             &lt;&lt;static&gt;&gt;&#10;+VIEW_ROWS: int                            &lt;&lt;static&gt;&gt;&#10;+WORLD_COLS: int                         &lt;&lt;static&gt;&gt;&#10;+WORLD_ROWS: int                        &lt;&lt;static&gt;&gt;&#10;+IMAGE_LIST_FILE_NAME: String    &lt;&lt;static&gt;&gt;&#10;+DEFAULT_IMAGE_NAME: String    &lt;&lt;static&gt;&gt;&#10;+DEFAULT_IMAGE_COLOR: int       &lt;&lt;static&gt;&gt;&#10;+LOAD_FILE_NAME: String            &lt;&lt;static&gt;&gt;&#10;+FAST_FLAG: String                      &lt;&lt;static&gt;&gt;&#10;+FASTER_FLAG: String                  &lt;&lt;static&gt;&gt;&#10;+FASTEST_FLAG: String                &lt;&lt;static&gt;&gt;&#10;+FAST_SCALE: double                  &lt;&lt;static&gt;&gt;&#10;+FASTER_SCALE: double              &lt;&lt;static&gt;&gt;&#10;+FASTEST_SCALE: double            &lt;&lt;static&gt;&gt;&#10;+timeScale: double&#10;+imageStore: ImageStore&#10;+world: WorldModel&#10;+view: WorldView&#10;+scheduler: EventScheduler" style="text;strokeColor=none;fillColor=none;align=left;verticalAlign=top;spacingLeft=4;spacingRight=4;overflow=hidden;rotatable=0;points=[[0,0.5],[1,0.5]];portConstraint=eastwest;fontColor=#5AA9E6;" parent="8I9pphBKhg92I5GMk5e_-50" vertex="1"><mxGeometry y="20" width="300" height="380" as="geometry"/></mxCell><mxCell id="8I9pphBKhg92I5GMk5e_-52" value="" style="line;strokeWidth=1;fillColor=none;align=left;verticalAlign=middle;spacingTop=-1;spacingLeft=3;spacingRight=3;rotatable=0;labelPosition=right;points=[];portConstraint=eastwest;strokeColor=#FF6392;fontColor=#5AA9E6;" parent="8I9pphBKhg92I5GMk5e_-50" vertex="1"><mxGeometry y="400" width="300" height="8" as="geometry"/></mxCell><mxCell id="8I9pphBKhg92I5GMk5e_-53" value="+settings()&#10;+setup()&#10;+draw()&#10;+mousePressed()&#10;-mouseToPoint()&#10;+keyPressed()&#10;+createDefaultBackground()         &lt;&lt;static&gt;&gt;&#10;+createImageColored()                 &lt;&lt;static&gt;&gt;&#10;+loadWorld()                                 &lt;&lt;static&gt;&gt;&#10;+loadWorld()                                 &lt;&lt;static&gt;&gt;&#10;+scheduleActions()                       &lt;&lt;static&gt;&gt;&#10;+parseCommandLine()                  &lt;&lt;static&gt;&gt;&#10;+main()                                         &lt;&lt;static&gt;&gt;" style="text;strokeColor=none;fillColor=none;align=left;verticalAlign=top;spacingLeft=4;spacingRight=4;overflow=hidden;rotatable=0;points=[[0,0.5],[1,0.5]];portConstraint=eastwest;fontColor=#5AA9E6;" parent="8I9pphBKhg92I5GMk5e_-50" vertex="1"><mxGeometry y="408" width="300" height="202" as="geometry"/></mxCell><mxCell id="8I9pphBKhg92I5GMk5e_-54" value="WorldModel" style="swimlane;fontStyle=1;align=center;verticalAlign=top;childLayout=stackLayout;horizontal=1;startSize=26;horizontalStack=0;resizeParent=1;resizeParentMax=0;resizeLast=0;collapsible=1;marginBottom=0;hachureGap=4;pointerEvents=0;sketch=0;fontColor=#5AA9E6;strokeColor=#FF6392;fillColor=#FFE45E;" parent="1" vertex="1"><mxGeometry x="520" y="52.03" width="280" height="900" as="geometry"/></mxCell><mxCell id="8I9pphBKhg92I5GMk5e_-55" value="-numRows: int&#10;-numCols: int&#10;-background: Background[][]&#10;-occupancy: Entity[][]&#10;-entities: Set&lt;Entity&gt;&#10;+SAPLING_KEY: String                       &lt;&lt;static&gt;&gt;&#10;+SAPLING_HEALTH_LIMIT: int            &lt;&lt;static&gt;&gt;&#10;+SAPLING_NUM_PROPERTIES: int    &lt;&lt;static&gt;&gt;&#10;+OBSTACLE_KEY: String                        &lt;&lt;static&gt;&gt;&#10;+OBSTACLE_NUM_PROPERTIES: int   &lt;&lt;static&gt;&gt;&#10;+OBSTACLE_ANIMATION_PERIOD: int &lt;&lt;static&gt;&gt;&#10;&#10;+DUDE_KEY: String                            &lt;&lt;static&gt;&gt;&#10;+DUDE_NUM_PROPERTIES: int        &lt;&lt;static&gt;&gt;&#10;+DUDE_LIMIT: int                              &lt;&lt;static&gt;&gt;&#10;+DUDE_ACTION_PERIOD: int             &lt;&lt;static&gt;&gt;&#10;+DUDE_ANIMATION_PERIOD: int        &lt;&lt;static&gt;&gt;&#10;&#10;+HOUSE_KEY: String                           &lt;&lt;static&gt;&gt;&#10;+HOUSE_NUM_PROPERTIES: int       &lt;&lt;static&gt;&gt;&#10;&#10;+FAIRY_KEY: String                            &lt;&lt;static&gt;&gt;&#10;+FAIRY_NUM_PROPERTIES: int         &lt;&lt;static&gt;&gt;&#10;+FAIRY_ANIMATION_PERIOD: int      &lt;&lt;static&gt;&gt;&#10;+FAIRY_ACTION_PERIOD: int      &lt;&lt;static&gt;&gt;&#10;&#10;+TREE_KEY: String                            &lt;&lt;static&gt;&gt;&#10;+TREE_NUM_PROPERTIES: int         &lt;&lt;static&gt;&gt;&#10;+TREE_ANIMATION_PERIOD: int      &lt;&lt;static&gt;&gt;&#10;+TREE_ACTION_PERIOD: int          &lt;&lt;static&gt;&gt;&#10;+PROPERTY_KEY: int                           &lt;&lt;static&gt;&gt;&#10;&#10;&#10;&#10;&#10;" style="text;strokeColor=none;fillColor=none;align=left;verticalAlign=top;spacingLeft=4;spacingRight=4;overflow=hidden;rotatable=0;points=[[0,0.5],[1,0.5]];portConstraint=eastwest;fontColor=#000000;" parent="8I9pphBKhg92I5GMk5e_-54" vertex="1"><mxGeometry y="26" width="280" height="454" as="geometry"/></mxCell><mxCell id="8I9pphBKhg92I5GMk5e_-56" value="" style="line;strokeWidth=1;fillColor=none;align=left;verticalAlign=middle;spacingTop=-1;spacingLeft=3;spacingRight=3;rotatable=0;labelPosition=right;points=[];portConstraint=eastwest;strokeColor=#FF6392;fontColor=#5AA9E6;" parent="8I9pphBKhg92I5GMk5e_-54" vertex="1"><mxGeometry y="480" width="280" height="8" as="geometry"/></mxCell><mxCell id="8I9pphBKhg92I5GMk5e_-57" value="TODO&#10;+getNumCols()&#10;+getNumRows()&#10;+getEntities()&#10;+withinBounds()&#10;+findNearest()&#10;+parseSapling()&#10;+parseDude()&#10;+parseFairy()&#10;+parseTree()&#10;+parseObstacle()&#10;+parseHouse()&#10;+parseStump()&#10;+tryAddEntity()&#10;+isOccupied()&#10;+addEntity()&#10;+moveEntity()&#10;+removeEntity()&#10;+removeEntityAt()&#10;+getOccupant()&#10;+getOccupancyCell()&#10;+setOccupancyCell()&#10;+getBackgroundImage()&#10;+getBackgroundCell()&#10;+load()&#10;+parseSaveFile()&#10;+parseBackgroundRow()&#10;+parseEntity()" style="text;strokeColor=none;fillColor=none;align=left;verticalAlign=top;spacingLeft=4;spacingRight=4;overflow=hidden;rotatable=0;points=[[0,0.5],[1,0.5]];portConstraint=eastwest;fontColor=#020405;" parent="8I9pphBKhg92I5GMk5e_-54" vertex="1"><mxGeometry y="488" width="280" height="412" as="geometry"/></mxCell><mxCell id="8I9pphBKhg92I5GMk5e_-60" value="WorldView" style="swimlane;fontStyle=1;align=center;verticalAlign=top;childLayout=stackLayout;horizontal=1;startSize=26;horizontalStack=0;resizeParent=1;resizeParentMax=0;resizeLast=0;collapsible=1;marginBottom=0;hachureGap=4;pointerEvents=0;sketch=0;fontColor=#5AA9E6;strokeColor=#FF6392;fillColor=#FFE45E;" parent="1" vertex="1"><mxGeometry x="510" y="990" width="280" height="230" as="geometry"/></mxCell><mxCell id="8I9pphBKhg92I5GMk5e_-61" value="-screen: PApplet&#10;-world: WorldModel&#10;-tileWidth: int&#10;-tileHeight: int&#10;-viewport: Viewport" style="text;strokeColor=none;fillColor=none;align=left;verticalAlign=top;spacingLeft=4;spacingRight=4;overflow=hidden;rotatable=0;points=[[0,0.5],[1,0.5]];portConstraint=eastwest;fontColor=#000000;" parent="8I9pphBKhg92I5GMk5e_-60" vertex="1"><mxGeometry y="26" width="280" height="84" as="geometry"/></mxCell><mxCell id="8I9pphBKhg92I5GMk5e_-62" value="" style="line;strokeWidth=1;fillColor=none;align=left;verticalAlign=middle;spacingTop=-1;spacingLeft=3;spacingRight=3;rotatable=0;labelPosition=right;points=[];portConstraint=eastwest;strokeColor=#FF6392;fontColor=#5AA9E6;" parent="8I9pphBKhg92I5GMk5e_-60" vertex="1"><mxGeometry y="110" width="280" height="8" as="geometry"/></mxCell><mxCell id="8I9pphBKhg92I5GMk5e_-63" value="TODO&#10;+getViewport()&#10;+shiftView()&#10;+drawBackground()&#10;+drawEntities()&#10;+drawViewport()&#10;+clamp()        &lt;&lt;static&gt;&gt;" style="text;strokeColor=none;fillColor=none;align=left;verticalAlign=top;spacingLeft=4;spacingRight=4;overflow=hidden;rotatable=0;points=[[0,0.5],[1,0.5]];portConstraint=eastwest;fontColor=#000000;" parent="8I9pphBKhg92I5GMk5e_-60" vertex="1"><mxGeometry y="118" width="280" height="112" as="geometry"/></mxCell><mxCell id="8I9pphBKhg92I5GMk5e_-64" value="EventScheduler" style="swimlane;fontStyle=1;align=center;verticalAlign=top;childLayout=stackLayout;horizontal=1;startSize=26;horizontalStack=0;resizeParent=1;resizeParentMax=0;resizeLast=0;collapsible=1;marginBottom=0;hachureGap=4;pointerEvents=0;sketch=0;fontColor=#5AA9E6;strokeColor=#FF6392;fillColor=#FFE45E;" parent="1" vertex="1"><mxGeometry x="510" y="1250" width="280" height="200" as="geometry"/></mxCell><mxCell id="8I9pphBKhg92I5GMk5e_-65" value="-eventQueue: PriorityQueue&lt;Event&gt;&#10;-pendingEvents: Map&lt;Entity, List&lt;Event&gt;&gt;&#10;-currentTime: double" style="text;strokeColor=none;fillColor=none;align=left;verticalAlign=top;spacingLeft=4;spacingRight=4;overflow=hidden;rotatable=0;points=[[0,0.5],[1,0.5]];portConstraint=eastwest;fontColor=#000000;" parent="8I9pphBKhg92I5GMk5e_-64" vertex="1"><mxGeometry y="26" width="280" height="64" as="geometry"/></mxCell><mxCell id="8I9pphBKhg92I5GMk5e_-66" value="" style="line;strokeWidth=1;fillColor=none;align=left;verticalAlign=middle;spacingTop=-1;spacingLeft=3;spacingRight=3;rotatable=0;labelPosition=right;points=[];portConstraint=eastwest;strokeColor=#FF6392;fontColor=#5AA9E6;" parent="8I9pphBKhg92I5GMk5e_-64" vertex="1"><mxGeometry y="90" width="280" height="8" as="geometry"/></mxCell><mxCell id="8I9pphBKhg92I5GMk5e_-67" value="TODO&#10;+getCurrentTime()&#10;+scheduleEvent()&#10;+unscheduleAllEvents&#10;+removePendingEvent()&#10;+updateOnTime()" style="text;strokeColor=none;fillColor=none;align=left;verticalAlign=top;spacingLeft=4;spacingRight=4;overflow=hidden;rotatable=0;points=[[0,0.5],[1,0.5]];portConstraint=eastwest;fontColor=#000000;" parent="8I9pphBKhg92I5GMk5e_-64" vertex="1"><mxGeometry y="98" width="280" height="102" as="geometry"/></mxCell><mxCell id="8I9pphBKhg92I5GMk5e_-68" value="ImageStore" style="swimlane;fontStyle=1;align=center;verticalAlign=top;childLayout=stackLayout;horizontal=1;startSize=26;horizontalStack=0;resizeParent=1;resizeParentMax=0;resizeLast=0;collapsible=1;marginBottom=0;hachureGap=4;pointerEvents=0;sketch=0;fontColor=#5AA9E6;strokeColor=#FF6392;fillColor=#FFE45E;" parent="1" vertex="1"><mxGeometry x="510" y="1490" width="280" height="250" as="geometry"/></mxCell><mxCell id="8I9pphBKhg92I5GMk5e_-69" value="-images: Map&lt;String, List&lt;PImage&gt;&gt;&#10;-defaultImages: List&lt;PImage&gt;&#10;+COLOR_MASK: int                             &lt;&lt;static&gt;&gt;&#10;+KEYED_IMAGE_MIN: int                    &lt;&lt;static&gt;&gt;&#10;+KEYED_RED_IDX: int                        &lt;&lt;static&gt;&gt;&#10;+KEYED_GREEN_IDX: int                    &lt;&lt;static&gt;&gt;&#10;+KEYED_BLUE_IDX: int                        &lt;&lt;static&gt;&gt;&#10;" style="text;strokeColor=none;fillColor=none;align=left;verticalAlign=top;spacingLeft=4;spacingRight=4;overflow=hidden;rotatable=0;points=[[0,0.5],[1,0.5]];portConstraint=eastwest;fontColor=#000000;" parent="8I9pphBKhg92I5GMk5e_-68" vertex="1"><mxGeometry y="26" width="280" height="114" as="geometry"/></mxCell><mxCell id="8I9pphBKhg92I5GMk5e_-70" value="" style="line;strokeWidth=1;fillColor=none;align=left;verticalAlign=middle;spacingTop=-1;spacingLeft=3;spacingRight=3;rotatable=0;labelPosition=right;points=[];portConstraint=eastwest;strokeColor=#FF6392;fontColor=#5AA9E6;" parent="8I9pphBKhg92I5GMk5e_-68" vertex="1"><mxGeometry y="140" width="280" height="8" as="geometry"/></mxCell><mxCell id="8I9pphBKhg92I5GMk5e_-71" value="TODO&#10;+getImageList()&#10;+loadImages()&#10;+processImageLine()        &lt;&lt;static&gt;&gt;&#10;+getImages()        &lt;&lt;static&gt;&gt;&#10;+setAlpha()        &lt;&lt;static&gt;&gt;&#10;" style="text;strokeColor=none;fillColor=none;align=left;verticalAlign=top;spacingLeft=4;spacingRight=4;overflow=hidden;rotatable=0;points=[[0,0.5],[1,0.5]];portConstraint=eastwest;fontColor=#000000;" parent="8I9pphBKhg92I5GMk5e_-68" vertex="1"><mxGeometry y="148" width="280" height="102" as="geometry"/></mxCell><mxCell id="8I9pphBKhg92I5GMk5e_-72" value="EventComparator" style="swimlane;fontStyle=1;align=center;verticalAlign=top;childLayout=stackLayout;horizontal=1;startSize=26;horizontalStack=0;resizeParent=1;resizeParentMax=0;resizeLast=0;collapsible=1;marginBottom=0;hachureGap=4;pointerEvents=0;sketch=0;fontColor=#5AA9E6;strokeColor=#FF6392;fillColor=#FFE45E;" parent="1" vertex="1"><mxGeometry x="850" y="580" width="240" height="190" as="geometry"/></mxCell><mxCell id="8I9pphBKhg92I5GMk5e_-73" value="+eventQueue: PriorityQueue&lt;Event&gt;&#10;+pendingEvents: Map&lt;Entity, List&lt;Event&gt;&gt;&#10;+timeScale: double" style="text;strokeColor=none;fillColor=none;align=left;verticalAlign=top;spacingLeft=4;spacingRight=4;overflow=hidden;rotatable=0;points=[[0,0.5],[1,0.5]];portConstraint=eastwest;fontColor=#000000;" parent="8I9pphBKhg92I5GMk5e_-72" vertex="1"><mxGeometry y="26" width="240" height="74" as="geometry"/></mxCell><mxCell id="8I9pphBKhg92I5GMk5e_-74" value="" style="line;strokeWidth=1;fillColor=none;align=left;verticalAlign=middle;spacingTop=-1;spacingLeft=3;spacingRight=3;rotatable=0;labelPosition=right;points=[];portConstraint=eastwest;strokeColor=#FF6392;fontColor=#5AA9E6;" parent="8I9pphBKhg92I5GMk5e_-72" vertex="1"><mxGeometry y="100" width="240" height="8" as="geometry"/></mxCell><mxCell id="8I9pphBKhg92I5GMk5e_-75" value="TODO&#10;+compare()" style="text;strokeColor=none;fillColor=none;align=left;verticalAlign=top;spacingLeft=4;spacingRight=4;overflow=hidden;rotatable=0;points=[[0,0.5],[1,0.5]];portConstraint=eastwest;fontColor=#000000;" parent="8I9pphBKhg92I5GMk5e_-72" vertex="1"><mxGeometry y="108" width="240" height="82" as="geometry"/></mxCell><mxCell id="8I9pphBKhg92I5GMk5e_-77" value="Functions" style="swimlane;fontStyle=1;align=center;verticalAlign=top;childLayout=stackLayout;horizontal=1;startSize=26;horizontalStack=0;resizeParent=1;resizeParentMax=0;resizeLast=0;collapsible=1;marginBottom=0;hachureGap=4;pointerEvents=0;sketch=0;fontColor=#5AA9E6;strokeColor=#FF6392;fillColor=#FFE45E;" parent="1" vertex="1"><mxGeometry x="40.00000000000006" y="910" width="360" height="200" as="geometry"/></mxCell><mxCell id="8I9pphBKhg92I5GMk5e_-78" value="&#10;+PROPERTY_KEY: int                           &lt;&lt;static&gt;&gt;&#10;+PROPERTY_COL:int    &lt;&lt;static&gt;&gt;&#10;+PROPERTY_ROW:in    &lt;&lt;static&gt;&gt;&#10;+ENTITY_NUM_PROPERTIES:int    &lt;&lt;static&gt;&gt;&#10;" style="text;strokeColor=none;fillColor=none;align=left;verticalAlign=top;spacingLeft=4;spacingRight=4;overflow=hidden;rotatable=0;points=[[0,0.5],[1,0.5]];portConstraint=eastwest;fontColor=#000000;" parent="8I9pphBKhg92I5GMk5e_-77" vertex="1"><mxGeometry y="26" width="360" height="84" as="geometry"/></mxCell><mxCell id="8I9pphBKhg92I5GMk5e_-79" value="" style="line;strokeWidth=1;fillColor=none;align=left;verticalAlign=middle;spacingTop=-1;spacingLeft=3;spacingRight=3;rotatable=0;labelPosition=right;points=[];portConstraint=eastwest;strokeColor=#FF6392;fontColor=#5AA9E6;" parent="8I9pphBKhg92I5GMk5e_-77" vertex="1"><mxGeometry y="110" width="360" height="8" as="geometry"/></mxCell><mxCell id="8I9pphBKhg92I5GMk5e_-80" value="+getIntFromRange()        &lt;&lt;static&gt;&gt; &#10;+getNumFromRange()        &lt;&lt;static&gt;&gt;" style="text;strokeColor=none;fillColor=none;align=left;verticalAlign=top;spacingLeft=4;spacingRight=4;overflow=hidden;rotatable=0;points=[[0,0.5],[1,0.5]];portConstraint=eastwest;fontColor=#000000;" parent="8I9pphBKhg92I5GMk5e_-77" vertex="1"><mxGeometry y="118" width="360" height="82" as="geometry"/></mxCell><mxCell id="8I9pphBKhg92I5GMk5e_-81" value="Background" style="swimlane;fontStyle=1;align=center;verticalAlign=top;childLayout=stackLayout;horizontal=1;startSize=26;horizontalStack=0;resizeParent=1;resizeParentMax=0;resizeLast=0;collapsible=1;marginBottom=0;hachureGap=4;pointerEvents=0;sketch=0;fontColor=#5AA9E6;strokeColor=#FF6392;fillColor=#FFE45E;" parent="1" vertex="1"><mxGeometry x="850" y="30" width="250" height="200" as="geometry"/></mxCell><mxCell id="8I9pphBKhg92I5GMk5e_-82" value="-id: String&#10;-images: List&lt;PImage&gt;&#10;-imageIndex: int" style="text;strokeColor=none;fillColor=none;align=left;verticalAlign=top;spacingLeft=4;spacingRight=4;overflow=hidden;rotatable=0;points=[[0,0.5],[1,0.5]];portConstraint=eastwest;" parent="8I9pphBKhg92I5GMk5e_-81" vertex="1"><mxGeometry y="26" width="250" height="84" as="geometry"/></mxCell><mxCell id="8I9pphBKhg92I5GMk5e_-83" value="" style="line;strokeWidth=1;fillColor=none;align=left;verticalAlign=middle;spacingTop=-1;spacingLeft=3;spacingRight=3;rotatable=0;labelPosition=right;points=[];portConstraint=eastwest;" parent="8I9pphBKhg92I5GMk5e_-81" vertex="1"><mxGeometry y="110" width="250" height="8" as="geometry"/></mxCell><mxCell id="8I9pphBKhg92I5GMk5e_-84" value="TODO&#10;+getImageIndex()&#10;+getImages()&#10;+getCurrentImage()    " style="text;strokeColor=none;fillColor=none;align=left;verticalAlign=top;spacingLeft=4;spacingRight=4;overflow=hidden;rotatable=0;points=[[0,0.5],[1,0.5]];portConstraint=eastwest;" parent="8I9pphBKhg92I5GMk5e_-81" vertex="1"><mxGeometry y="118" width="250" height="82" as="geometry"/></mxCell><mxCell id="8I9pphBKhg92I5GMk5e_-85" value="Entity" style="swimlane;fontStyle=1;align=center;verticalAlign=top;childLayout=stackLayout;horizontal=1;startSize=26;horizontalStack=0;resizeParent=1;resizeParentMax=0;resizeLast=0;collapsible=1;marginBottom=0;hachureGap=4;pointerEvents=0;sketch=0;fontColor=#5AA9E6;strokeColor=#FF6392;fillColor=#FFE45E;" parent="1" vertex="1"><mxGeometry x="1120" y="120" width="360" height="940" as="geometry"/></mxCell><mxCell id="8I9pphBKhg92I5GMk5e_-86" value="-kind: EntityKind&#10;-id: String&#10;-position: Point&#10;-images: List&lt;PImage&gt;&#10;-imageIndex: int&#10;-resourceLimit: int&#10;-resourceCount: int&#10;-actionPeriod: int&#10;-animationPeriod: int&#10;-health: int&#10;-healthLimit: int&#10;+SAPLING_HEALTH_LIMIT: int                               &lt;&lt;static&gt;&gt;&#10;+ SAPLING_ACTION_ANIMATION_PERIOD:  int     &lt;&lt;static&gt;&gt;&#10;+SAPLING_KEY: String                            &lt;&lt;static&gt;&gt;&#10;+TREE_ANIMATION_PERIOD_MAX: int      &lt;&lt;static&gt;&gt;&#10;+TREE_ANIMATION_PERIOD_MIN: int      &lt;&lt;static&gt;&gt;&#10;+TREE_ACTION_PERIOD_MAX: int          &lt;&lt;static&gt;&gt;&#10;+TREE_ACTION_PERIOD_MIN: int          &lt;&lt;static&gt;&gt;&#10;+TREE_HEALTH_MAX: int                               &lt;&lt;static&gt;&gt;&#10;+TREE_HEALTH_MIN: int                               &lt;&lt;static&gt;&gt;&#10;+TREE_KEY: String                            &lt;&lt;static&gt;&gt;&#10;+STUMP_KEY: String.     &lt;&lt;static&gt;&gt;&#10;" style="text;strokeColor=none;fillColor=none;align=left;verticalAlign=top;spacingLeft=4;spacingRight=4;overflow=hidden;rotatable=0;points=[[0,0.5],[1,0.5]];portConstraint=eastwest;" parent="8I9pphBKhg92I5GMk5e_-85" vertex="1"><mxGeometry y="26" width="360" height="344" as="geometry"/></mxCell><mxCell id="8I9pphBKhg92I5GMk5e_-87" value="" style="line;strokeWidth=1;fillColor=none;align=left;verticalAlign=middle;spacingTop=-1;spacingLeft=3;spacingRight=3;rotatable=0;labelPosition=right;points=[];portConstraint=eastwest;" parent="8I9pphBKhg92I5GMk5e_-85" vertex="1"><mxGeometry y="370" width="360" height="8" as="geometry"/></mxCell><mxCell id="8I9pphBKhg92I5GMk5e_-88" value="TODO&#10;+log()&#10;+getKind()&#10;+getId()&#10;+getPosition()&#10;+getImages()&#10;+getImageIndex()&#10;+getHealth()&#10;+setPosition()&#10;+getAnimationPeriod()&#10;+nextImage()&#10;+executeSaplingActivity()&#10;+executeTreeActivity()&#10;+executeFairyActivity()&#10;+executeDudeNotFullActivity()&#10;+executeDudeFullActivity()&#10;+scheduleActions()&#10;+transformNotFull()&#10;+transformFull()&#10;+transformPlant()&#10;+transformTree()&#10;+transformSapling(): boolean                  &#10;+moveToFairy(): boolean                     &#10;+moveToNotFull(): boolean                   &#10;+moveToFull(): boolean                   &#10;+nextPositionFairy(): Point                 &#10;+nextPositionDude(): Point                &#10;+createAnimationAction(): Action             &#10;+createActivityAction(): Action             &#10;+createHouse(): Entity        &lt;&lt;static&gt;&gt;&#10;+createObstacle(): Entity    &lt;&lt;static&gt;&gt;      &#10;+createTree(): Entity    &lt;&lt;static&gt;&gt;           &#10;+createStump(): Entity   &lt;&lt;static&gt;&gt;     &#10;+createSapling(): Entity   &lt;&lt;static&gt;&gt;      &#10;+createFairy(): Entity     &lt;&lt;static&gt;&gt;      &#10;+createDudeNotFull(): Entity     &lt;&lt;static&gt;&gt;      &#10;+createDudeFull(): Entity       &lt;&lt;static&gt;&gt;  &#10;+getCurrentImage()         &#10;    &#10;&#10;" style="text;strokeColor=none;fillColor=none;align=left;verticalAlign=top;spacingLeft=4;spacingRight=4;overflow=hidden;rotatable=0;points=[[0,0.5],[1,0.5]];portConstraint=eastwest;" parent="8I9pphBKhg92I5GMk5e_-85" vertex="1"><mxGeometry y="378" width="360" height="562" as="geometry"/></mxCell><mxCell id="8I9pphBKhg92I5GMk5e_-89" value="Viewport" style="swimlane;fontStyle=1;align=center;verticalAlign=top;childLayout=stackLayout;horizontal=1;startSize=26;horizontalStack=0;resizeParent=1;resizeParentMax=0;resizeLast=0;collapsible=1;marginBottom=0;hachureGap=4;pointerEvents=0;sketch=0;fontColor=#5AA9E6;strokeColor=#FF6392;fillColor=#FFE45E;" parent="1" vertex="1"><mxGeometry x="850" y="302.04" width="230" height="250" as="geometry"/></mxCell><mxCell id="8I9pphBKhg92I5GMk5e_-90" value="-row: int&#10;-col: int&#10;-numRows: int&#10;-numCols: int&#10;" style="text;strokeColor=none;fillColor=none;align=left;verticalAlign=top;spacingLeft=4;spacingRight=4;overflow=hidden;rotatable=0;points=[[0,0.5],[1,0.5]];portConstraint=eastwest;" parent="8I9pphBKhg92I5GMk5e_-89" vertex="1"><mxGeometry y="26" width="230" height="74" as="geometry"/></mxCell><mxCell id="8I9pphBKhg92I5GMk5e_-91" value="" style="line;strokeWidth=1;fillColor=none;align=left;verticalAlign=middle;spacingTop=-1;spacingLeft=3;spacingRight=3;rotatable=0;labelPosition=right;points=[];portConstraint=eastwest;" parent="8I9pphBKhg92I5GMk5e_-89" vertex="1"><mxGeometry y="100" width="230" height="8" as="geometry"/></mxCell><mxCell id="8I9pphBKhg92I5GMk5e_-92" value="TODO&#10;+getRow()&#10;+getCol()&#10;+getNumRows()&#10;+getNumCols()&#10;+viewportToWorld()&#10;+worldToViewport()&#10;+shift()&#10;+contains()" style="text;strokeColor=none;fillColor=none;align=left;verticalAlign=top;spacingLeft=4;spacingRight=4;overflow=hidden;rotatable=0;points=[[0,0.5],[1,0.5]];portConstraint=eastwest;" parent="8I9pphBKhg92I5GMk5e_-89" vertex="1"><mxGeometry y="108" width="230" height="142" as="geometry"/></mxCell><mxCell id="8I9pphBKhg92I5GMk5e_-96" value="Event" style="swimlane;fontStyle=1;align=center;verticalAlign=top;childLayout=stackLayout;horizontal=1;startSize=26;horizontalStack=0;resizeParent=1;resizeParentMax=0;resizeLast=0;collapsible=1;marginBottom=0;hachureGap=4;pointerEvents=0;sketch=0;fontColor=#5AA9E6;strokeColor=#FF6392;fillColor=#FFE45E;" parent="1" vertex="1"><mxGeometry x="1120" y="1080" width="165" height="180" as="geometry"/></mxCell><mxCell id="8I9pphBKhg92I5GMk5e_-97" value="-action: Action&#10;-time: long&#10;-entity: Entity" style="text;strokeColor=none;fillColor=none;align=left;verticalAlign=top;spacingLeft=4;spacingRight=4;overflow=hidden;rotatable=0;points=[[0,0.5],[1,0.5]];portConstraint=eastwest;" parent="8I9pphBKhg92I5GMk5e_-96" vertex="1"><mxGeometry y="26" width="165" height="64" as="geometry"/></mxCell><mxCell id="8I9pphBKhg92I5GMk5e_-98" value="" style="line;strokeWidth=1;fillColor=none;align=left;verticalAlign=middle;spacingTop=-1;spacingLeft=3;spacingRight=3;rotatable=0;labelPosition=right;points=[];portConstraint=eastwest;" parent="8I9pphBKhg92I5GMk5e_-96" vertex="1"><mxGeometry y="90" width="165" height="8" as="geometry"/></mxCell><mxCell id="8I9pphBKhg92I5GMk5e_-99" value="TODO&#10;+getAction()&#10;+getTime()&#10;+getEntity()&#10;" style="text;strokeColor=none;fillColor=none;align=left;verticalAlign=top;spacingLeft=4;spacingRight=4;overflow=hidden;rotatable=0;points=[[0,0.5],[1,0.5]];portConstraint=eastwest;" parent="8I9pphBKhg92I5GMk5e_-96" vertex="1"><mxGeometry y="98" width="165" height="82" as="geometry"/></mxCell><mxCell id="8I9pphBKhg92I5GMk5e_-100" value="&lt;&lt;enumeration&gt;&gt;&#10;EntityKind" style="swimlane;fontStyle=1;align=center;verticalAlign=top;childLayout=stackLayout;horizontal=1;startSize=40;horizontalStack=0;resizeParent=1;resizeParentMax=0;resizeLast=0;collapsible=1;marginBottom=0;hachureGap=4;pointerEvents=0;sketch=0;fontColor=#5AA9E6;strokeColor=#FF6392;fillColor=#FFE45E;" parent="1" vertex="1"><mxGeometry x="1520" y="30" width="160" height="172" as="geometry"/></mxCell><mxCell id="8I9pphBKhg92I5GMk5e_-101" value="HOUSE&#10;DUDE_FULL&#10;DUDE_NOT_FULL&#10;OBSTACLE&#10;FAIRY&#10;STUMP&#10;SAPLING&#10;TREE" style="text;strokeColor=none;fillColor=none;align=left;verticalAlign=top;spacingLeft=4;spacingRight=4;overflow=hidden;rotatable=0;points=[[0,0.5],[1,0.5]];portConstraint=eastwest;" parent="8I9pphBKhg92I5GMk5e_-100" vertex="1"><mxGeometry y="40" width="160" height="124" as="geometry"/></mxCell><mxCell id="8I9pphBKhg92I5GMk5e_-102" value="" style="line;strokeWidth=1;fillColor=none;align=left;verticalAlign=middle;spacingTop=-1;spacingLeft=3;spacingRight=3;rotatable=0;labelPosition=right;points=[];portConstraint=eastwest;" parent="8I9pphBKhg92I5GMk5e_-100" vertex="1"><mxGeometry y="164" width="160" height="8" as="geometry"/></mxCell><mxCell id="8I9pphBKhg92I5GMk5e_-104" value="Point" style="swimlane;fontStyle=1;align=center;verticalAlign=top;childLayout=stackLayout;horizontal=1;startSize=26;horizontalStack=0;resizeParent=1;resizeParentMax=0;resizeLast=0;collapsible=1;marginBottom=0;hachureGap=4;pointerEvents=0;sketch=0;fontColor=#5AA9E6;strokeColor=#FF6392;fillColor=#FFE45E;" parent="1" vertex="1"><mxGeometry x="1520" y="230" width="160" height="220" as="geometry"/></mxCell><mxCell id="8I9pphBKhg92I5GMk5e_-105" value="-x: int&#10;-y: int" style="text;strokeColor=none;fillColor=none;align=left;verticalAlign=top;spacingLeft=4;spacingRight=4;overflow=hidden;rotatable=0;points=[[0,0.5],[1,0.5]];portConstraint=eastwest;" parent="8I9pphBKhg92I5GMk5e_-104" vertex="1"><mxGeometry y="26" width="160" height="54" as="geometry"/></mxCell><mxCell id="8I9pphBKhg92I5GMk5e_-106" value="" style="line;strokeWidth=1;fillColor=none;align=left;verticalAlign=middle;spacingTop=-1;spacingLeft=3;spacingRight=3;rotatable=0;labelPosition=right;points=[];portConstraint=eastwest;" parent="8I9pphBKhg92I5GMk5e_-104" vertex="1"><mxGeometry y="80" width="160" height="8" as="geometry"/></mxCell><mxCell id="8I9pphBKhg92I5GMk5e_-107" value="+toString(): String&#10;+equals(): boolean&#10;+getX()&#10;+getY()&#10;+hashCode()&#10;+distanceSquared()&#10;+nearestEntity()&#10;+adjacent()" style="text;strokeColor=none;fillColor=none;align=left;verticalAlign=top;spacingLeft=4;spacingRight=4;overflow=hidden;rotatable=0;points=[[0,0.5],[1,0.5]];portConstraint=eastwest;" parent="8I9pphBKhg92I5GMk5e_-104" vertex="1"><mxGeometry y="88" width="160" height="132" as="geometry"/></mxCell><mxCell id="8I9pphBKhg92I5GMk5e_-108" value="Action" style="swimlane;fontStyle=1;align=center;verticalAlign=top;childLayout=stackLayout;horizontal=1;startSize=26;horizontalStack=0;resizeParent=1;resizeParentMax=0;resizeLast=0;collapsible=1;marginBottom=0;hachureGap=4;pointerEvents=0;sketch=0;fontColor=#5AA9E6;strokeColor=#FF6392;fillColor=#FFE45E;" parent="1" vertex="1"><mxGeometry x="1530" y="590" width="160" height="240" as="geometry"/></mxCell><mxCell id="8I9pphBKhg92I5GMk5e_-109" value="-kind: ActionKind&#10;-entity: Entity&#10;-world: WorldModel&#10;-imageStore: ImageStore&#10;-repeatCount: int" style="text;strokeColor=none;fillColor=none;align=left;verticalAlign=top;spacingLeft=4;spacingRight=4;overflow=hidden;rotatable=0;points=[[0,0.5],[1,0.5]];portConstraint=eastwest;" parent="8I9pphBKhg92I5GMk5e_-108" vertex="1"><mxGeometry y="26" width="160" height="124" as="geometry"/></mxCell><mxCell id="8I9pphBKhg92I5GMk5e_-110" value="" style="line;strokeWidth=1;fillColor=none;align=left;verticalAlign=middle;spacingTop=-1;spacingLeft=3;spacingRight=3;rotatable=0;labelPosition=right;points=[];portConstraint=eastwest;" parent="8I9pphBKhg92I5GMk5e_-108" vertex="1"><mxGeometry y="150" width="160" height="8" as="geometry"/></mxCell><mxCell id="8I9pphBKhg92I5GMk5e_-111" value="TODO&#10;+executeAction()&#10;+executeActivityAction()&#10;+executeAnimationAction()" style="text;strokeColor=none;fillColor=none;align=left;verticalAlign=top;spacingLeft=4;spacingRight=4;overflow=hidden;rotatable=0;points=[[0,0.5],[1,0.5]];portConstraint=eastwest;" parent="8I9pphBKhg92I5GMk5e_-108" vertex="1"><mxGeometry y="158" width="160" height="82" as="geometry"/></mxCell><mxCell id="8I9pphBKhg92I5GMk5e_-112" value="ActionKind" style="swimlane;fontStyle=1;align=center;verticalAlign=top;childLayout=stackLayout;horizontal=1;startSize=26;horizontalStack=0;resizeParent=1;resizeParentMax=0;resizeLast=0;collapsible=1;marginBottom=0;hachureGap=4;pointerEvents=0;sketch=0;fontColor=#5AA9E6;strokeColor=#FF6392;fillColor=#FFE45E;" parent="1" vertex="1"><mxGeometry x="1730" y="616" width="160" height="68" as="geometry"/></mxCell><mxCell id="8I9pphBKhg92I5GMk5e_-113" value="ACTIVITY&#10;ANIMATION" style="text;strokeColor=none;fillColor=none;align=left;verticalAlign=top;spacingLeft=4;spacingRight=4;overflow=hidden;rotatable=0;points=[[0,0.5],[1,0.5]];portConstraint=eastwest;" parent="8I9pphBKhg92I5GMk5e_-112" vertex="1"><mxGeometry y="26" width="160" height="34" as="geometry"/></mxCell><mxCell id="8I9pphBKhg92I5GMk5e_-114" value="" style="line;strokeWidth=1;fillColor=none;align=left;verticalAlign=middle;spacingTop=-1;spacingLeft=3;spacingRight=3;rotatable=0;labelPosition=right;points=[];portConstraint=eastwest;" parent="8I9pphBKhg92I5GMk5e_-112" vertex="1"><mxGeometry y="60" width="160" height="8" as="geometry"/></mxCell></root></mxGraphModel></diagram></mxfile>